<svg width="49" height="48" viewBox="0 0 49 48" fill="none" xmlns="http://www.w3.org/2000/svg">
<mask id="mask0_608_667" style="mask-type:luminance" maskUnits="userSpaceOnUse" x="0" y="0" width="49" height="48">
<path d="M48.0016 0H0V48H48.0016V0Z" fill="white"/>
</mask>
<g mask="url(#mask0_608_667)">
<path d="M31.8731 3.26046L38.1309 9.51875C38.2574 9.74473 38.3771 9.97762 38.4935 10.21C38.494 10.2151 38.4965 10.2199 38.5004 10.2233C38.5036 10.2265 38.5036 10.2265 38.5036 10.2334C39.8868 13.0187 40.5957 16.0902 40.5732 19.2C40.5506 22.3098 39.7973 25.3706 38.3739 28.1357C38.1309 28.6046 37.8714 29.0635 37.5885 29.5128C37.5861 29.5187 37.5829 29.5242 37.5789 29.5293C36.7824 30.7997 35.8449 31.976 34.7843 33.036L34.6412 33.179C36.2213 31.3454 37.3009 29.1348 37.7754 26.7613C38.2498 24.3878 38.1031 21.932 37.3492 19.632L37.3461 19.6288C36.714 17.6926 35.6678 15.9175 34.2802 14.4265C32.8927 12.9356 31.1971 11.7647 29.3113 10.9953C28.8955 10.7257 28.4696 10.4726 28.0352 10.2398C27.8555 10.1403 27.663 10.0436 27.4796 9.9505C27.3663 9.89042 27.2499 9.83406 27.1366 9.78088C27.0005 9.71761 26.8638 9.64796 26.7208 9.59106C26.6246 9.54799 26.5246 9.5012 26.4215 9.45813C26.2354 9.37838 26.0423 9.29862 25.8493 9.21833C25.6329 9.13538 25.4202 9.04871 25.2006 8.97587C25.0805 8.93599 24.9677 8.89558 24.8444 8.85942C24.7349 8.81582 24.6115 8.77913 24.4951 8.74298C24.3786 8.70682 24.2521 8.66641 24.126 8.63291C23.9463 8.57336 23.7634 8.52976 23.5837 8.4835C23.3375 8.4165 23.0881 8.36014 22.842 8.30006C22.8287 8.30697 22.8249 8.30378 22.8116 8.29687C22.5554 8.24051 22.2959 8.18734 22.0401 8.15065C21.7838 8.10067 21.5212 8.0576 21.258 8.02729C20.9948 7.99698 20.739 7.95444 20.4732 7.93424C20.4552 7.93679 20.4368 7.93461 20.42 7.92786C20.1775 7.90446 19.9377 7.88426 19.6915 7.87788C19.4289 7.86139 19.1726 7.85129 18.9067 7.85129C18.6435 7.84119 18.3841 7.84119 18.1145 7.85129C17.872 7.85448 17.6221 7.86459 17.3701 7.88426H17.3307C17.201 7.89436 17.0675 7.90127 16.9415 7.91457C16.8049 7.92414 16.6719 7.93796 16.5422 7.95444C16.2859 7.97784 16.0201 8.01081 15.76 8.05069C15.6239 8.0677 15.4873 8.08418 15.3543 8.11077C15.2214 8.13735 15.0848 8.16075 14.9518 8.18042C14.8955 8.19053 14.8423 8.20382 14.7854 8.21392C14.5461 8.26018 14.3 8.31388 14.057 8.37025C13.7741 8.43352 13.4944 8.50636 13.2153 8.58665C13.1052 8.61643 12.9989 8.64302 12.8925 8.68289C12.7824 8.71267 12.683 8.74617 12.5735 8.78286C12.4684 8.8112 12.3651 8.84565 12.264 8.88601C12.0279 8.96258 11.7887 9.04871 11.5521 9.13857C11.4824 9.16197 11.409 9.18855 11.3394 9.21833C11.1698 9.2816 11.0065 9.35817 10.8369 9.43102C10.8031 9.44112 10.7708 9.45558 10.7407 9.47408C10.6205 9.52034 10.504 9.57033 10.3876 9.62722C10.2712 9.68411 10.1685 9.72665 10.0553 9.78673L10.0462 9.7862H10.0393C9.9298 9.83618 9.82026 9.89254 9.70701 9.95263C9.51719 10.0425 9.33481 10.1456 9.15137 10.2424L16.128 3.26578C17.1608 2.23002 18.3877 1.40817 19.7386 0.847293C21.0894 0.28642 22.5377 -0.00246157 24.0003 -0.00280731C25.463 -0.00315304 26.9114 0.285047 28.2625 0.845283C29.6136 1.40552 30.841 2.22678 31.8742 3.26205L31.8731 3.26046Z" fill="url(#paint0_linear_608_667)"/>
<path d="M38.1306 9.52026L44.7383 16.1273C45.7745 17.1603 46.5967 18.3877 47.1577 19.739C47.7187 21.0904 48.0075 22.5391 48.0075 24.0023C48.0075 25.4655 47.7187 26.9142 47.1577 28.2656C46.5967 29.6169 45.7745 30.8443 44.7383 31.8773L36.3409 40.2741C36.0681 40.3608 35.7922 40.4437 35.5125 40.5171L35.5093 40.5203C35.5024 40.5203 35.5024 40.5203 35.4992 40.524C34.7309 40.7297 33.9511 40.8896 33.1639 41.0026C28.9529 41.615 24.6566 40.8517 20.9143 38.8262C20.0701 38.3724 19.2616 37.8553 18.4955 37.2795L18.4886 37.2726C18.126 37.0035 17.7665 36.7175 17.4209 36.4176C20.077 37.8246 23.1143 38.3428 26.0868 37.8962C29.0592 37.4495 31.8101 36.0615 33.9354 33.9361C34.1853 33.6862 34.4214 33.4368 34.641 33.1773L34.784 33.0343C35.8447 31.9744 36.7822 30.798 37.5787 29.5276C37.5826 29.5226 37.5859 29.517 37.5883 29.5111C37.8712 29.0618 38.1306 28.603 38.3736 28.134C39.797 25.369 40.5504 22.3081 40.573 19.1983C40.5955 16.0885 39.8865 13.017 38.5034 10.2317C38.5034 10.2248 38.5034 10.2248 38.5002 10.2216C38.4962 10.2182 38.4937 10.2135 38.4933 10.2083C38.3768 9.97754 38.2572 9.74465 38.1306 9.52026Z" fill="url(#paint1_linear_608_667)"/>
<path d="M36.3411 40.2725L31.8747 44.7389C29.7862 46.8273 26.9536 48.0006 24 48.0006C21.0465 48.0006 18.2139 46.8273 16.1253 44.7389L9.34491 37.9585C9.13542 37.4831 8.9424 36.9971 8.77279 36.508V36.4947C8.67974 36.2288 8.59307 35.9629 8.5165 35.6928C8.46652 35.5301 8.42026 35.3637 8.37028 35.2005C8.29052 34.8814 8.21076 34.5683 8.14377 34.2492C8.0773 33.943 8.01403 33.6404 7.96086 33.3278C7.90769 33.0151 7.86781 32.7019 7.82793 32.3893C7.78805 32.0766 7.76147 31.764 7.73807 31.4545C7.71468 31.1451 7.69819 30.8292 7.69128 30.5097C7.68437 30.1901 7.68171 29.8807 7.69128 29.5648C7.70457 28.9395 7.74817 28.3105 7.82102 27.6852C7.8912 27.0695 7.99436 26.4623 8.12037 25.8551C8.12378 25.8393 8.1284 25.8238 8.1342 25.8088C8.19694 25.5063 8.27351 25.2032 8.34688 24.9049C8.35422 24.8904 8.35874 24.8747 8.36018 24.8586L8.47981 24.4391C8.58615 24.0797 8.69941 23.7271 8.82596 23.3757C8.88232 23.2061 8.94878 23.0396 9.01206 22.87C9.09235 22.6637 9.17529 22.4542 9.26196 22.2543C9.34491 22.065 9.43158 21.872 9.51772 21.679L9.52144 21.6689C9.5778 21.5524 9.63416 21.4296 9.69106 21.3132C9.774 21.1499 9.86067 20.9771 9.95053 20.8139C10.0065 20.6932 10.0686 20.5756 10.1366 20.4613C10.293 20.1785 10.4557 19.8956 10.629 19.6228C10.6273 19.6506 10.6239 19.6783 10.6189 19.7058C10.1113 21.3001 9.89056 22.9718 9.96702 24.6433C10.0788 27.0846 10.8249 29.4547 12.1317 31.5199C13.4386 33.5851 15.2611 35.274 17.4195 36.4202C17.7651 36.7201 18.1246 37.0051 18.4872 37.2752L18.4941 37.2821C19.2602 37.858 20.0688 38.375 20.9129 38.8289C24.6553 40.8544 28.9515 41.6176 33.1625 41.0052C33.9498 40.8922 34.7296 40.7324 35.4978 40.5267C35.501 40.5229 35.501 40.5229 35.5079 40.5229L35.5111 40.5197C35.7924 40.4421 36.0683 40.3597 36.3411 40.2725Z" fill="url(#paint2_linear_608_667)"/>
<path d="M29.2642 10.966C28.8654 10.7065 28.4528 10.4604 28.037 10.237C27.9004 10.1605 27.751 10.0839 27.6079 10.0143C27.5479 9.98129 27.5048 9.95789 27.4814 9.94779C27.3681 9.8877 27.2517 9.83134 27.1384 9.77817C27.0023 9.7149 26.8657 9.64524 26.7226 9.58835C26.6264 9.54528 26.5264 9.49849 26.4233 9.45542C26.2372 9.37566 26.0442 9.29591 25.8512 9.21562C25.6347 9.13267 25.4183 9.04972 25.2025 8.97315C25.0823 8.93328 24.9696 8.89287 24.8462 8.85671C24.7335 8.81683 24.6133 8.77642 24.4969 8.74026C24.3804 8.70411 24.2539 8.6637 24.1279 8.6302C23.9481 8.57065 23.7652 8.52705 23.5855 8.48079C23.3393 8.41379 23.09 8.35743 22.8438 8.29735C22.8305 8.30426 22.8268 8.30107 22.8135 8.29416C22.554 8.24098 22.2977 8.191 22.042 8.14793C21.7862 8.10487 21.523 8.06126 21.2598 8.02458C20.9966 7.98789 20.7408 7.95811 20.475 7.93153C20.457 7.93413 20.4387 7.9319 20.4218 7.92515C20.1756 7.90494 19.9364 7.88527 19.6934 7.87516C19.4275 7.86187 19.1712 7.85177 18.9086 7.84858C18.6459 7.84539 18.3859 7.83848 18.1163 7.84858C17.8738 7.85177 17.6239 7.86187 17.3719 7.88154H17.3304C17.2007 7.89165 17.0672 7.89856 16.9412 7.91185L16.5419 7.95173C16.2856 7.97513 16.0198 8.00809 15.7597 8.04797C15.6268 8.06818 15.4907 8.09157 15.354 8.10806C15.2174 8.12454 15.0845 8.15804 14.9515 8.17771C14.8952 8.18781 14.842 8.20111 14.7851 8.21121C14.5458 8.25747 14.2997 8.31117 14.0567 8.36753C13.7738 8.43081 13.4941 8.50365 13.215 8.58394C13.1049 8.61372 12.9985 8.6403 12.8922 8.68018C12.7821 8.70996 12.6827 8.74345 12.5732 8.78014C12.4682 8.80854 12.3648 8.84299 12.2637 8.88329C12.0276 8.95986 11.7916 9.04281 11.5518 9.13586C11.4821 9.15925 11.4087 9.18584 11.3391 9.21562C11.1663 9.28261 10.9998 9.34908 10.8366 9.4283C10.8028 9.4384 10.7705 9.45292 10.7404 9.47137C10.6202 9.51763 10.5037 9.56761 10.3873 9.62451C10.2709 9.6814 10.1682 9.72394 10.055 9.78402L10.0459 9.78615H10.039C9.92949 9.83613 9.81996 9.89249 9.70671 9.95257C9.51688 10.0424 9.33451 10.1456 9.15106 10.2424L3.26554 16.1274L3.26235 16.1306C2.22839 17.1641 1.40819 18.3913 0.848597 19.7419C0.289005 21.0925 0.000976562 22.5401 0.000976562 24.0021C0.000976562 25.464 0.289005 26.9117 0.848597 28.2623C1.40819 29.6129 2.22839 30.84 3.26235 31.8736L9.34727 37.9585C9.13458 37.4731 8.94157 36.9807 8.77195 36.4846C8.56884 35.9029 8.39975 35.3148 8.253 34.7214C8.21259 34.5683 8.17962 34.4088 8.14665 34.2493C8.08019 33.943 8.01692 33.6405 7.96375 33.3278C7.91057 33.0152 7.86378 32.7089 7.83082 32.3893C7.79094 32.0836 7.75744 31.7704 7.74096 31.4546C7.72447 31.1387 7.69789 30.8256 7.69417 30.5097C7.68087 30.1971 7.68087 29.8775 7.69417 29.5649C7.70746 28.9396 7.74734 28.3074 7.8239 27.6853C7.89361 27.0738 7.99474 26.4663 8.12698 25.8652C8.12826 25.8461 8.13166 25.8272 8.13708 25.8088C8.19664 25.5159 8.2631 25.2298 8.33967 24.9405C8.58601 24.0242 8.8951 23.126 9.26485 22.2522C9.3478 22.0629 9.43447 21.8699 9.5206 21.6769L9.52433 21.6668C9.58069 21.5503 9.63705 21.4275 9.69394 21.3111C9.70596 21.2932 9.71596 21.2742 9.72372 21.2542C9.7971 21.101 9.87685 20.9548 9.95342 20.8118C10.0094 20.6912 10.0715 20.5735 10.1395 20.4593C10.2958 20.1764 10.4585 19.8935 10.6319 19.6207C10.6255 19.6473 10.6287 19.6771 10.6218 19.7037C10.6388 19.6473 10.6585 19.6011 10.6718 19.5474L10.6819 19.5378C11.3649 17.4734 12.5238 15.5986 14.0652 14.0649C16.5754 11.5488 19.9484 10.0812 23.5004 9.95949C23.5171 9.95683 23.5342 9.95794 23.5504 9.96268C24.651 9.92593 25.7521 10.0198 26.8306 10.2424H26.8375C27.0236 10.2822 27.2097 10.3221 27.3963 10.3684C28.0486 10.5309 28.6883 10.74 29.3105 10.9942C29.2945 10.9857 29.2791 10.9763 29.2642 10.966Z" fill="url(#paint3_linear_608_667)"/>
<g style="mix-blend-mode:multiply" opacity="0.08">
<path d="M32.1753 3.56512L38.1305 9.52031C40.1992 13.2722 40.9915 17.5953 40.3879 21.837C39.7842 26.0788 37.8173 30.0091 34.7839 33.0349L34.6409 33.1779C36.2209 31.3444 37.3005 29.1337 37.775 26.7602C38.2494 24.3867 38.1027 21.931 37.3489 19.6309C37.3489 19.6239 37.3457 19.6277 37.3457 19.6277C37.0426 15.1974 35.632 9.82817 32.1753 3.56512Z" fill="black"/>
</g>
<g style="mix-blend-mode:multiply" opacity="0.08">
<path d="M40.2166 36.3969L36.3409 40.2726C33.1206 41.3007 29.6905 41.4861 26.3782 40.811C23.0659 40.1359 19.982 38.623 17.4209 36.4166C19.585 37.564 22.0122 38.1239 24.4603 38.0404C29.7645 38.9199 35.2079 38.3521 40.2166 36.3969Z" fill="black"/>
</g>
<g style="mix-blend-mode:multiply" opacity="0.08">
<path d="M10.631 19.6191C10.6293 19.647 10.6259 19.6747 10.6209 19.7021C10.1132 21.2964 9.89251 22.9682 9.96897 24.6396C9.69301 28.5286 9.99875 34.018 12.1878 40.7984L9.34686 37.957C9.02066 37.221 8.7439 36.4641 8.51845 35.6913C8.46847 35.5286 8.42221 35.3622 8.37223 35.199C8.29247 34.8799 8.21272 34.5668 8.14572 34.2477C8.07926 33.9415 8.01598 33.6389 7.96281 33.3263C7.90964 33.0136 7.86976 32.7004 7.82988 32.3878C7.79 32.0751 7.76342 31.7624 7.74002 31.453C7.71663 31.1435 7.70014 30.8277 7.69323 30.5082C7.68632 30.1886 7.68366 29.8792 7.69323 29.5633C7.70653 28.938 7.75013 28.309 7.82297 27.6837C7.89316 27.068 7.99631 26.4608 8.12233 25.8535C8.12573 25.8378 8.13035 25.8223 8.13615 25.8072C8.19889 25.5047 8.27546 25.2017 8.34884 24.9034C8.35617 24.8889 8.36069 24.8732 8.36213 24.8571L8.48177 24.4375C8.58811 24.0781 8.70136 23.7256 8.82791 23.3741C8.88427 23.2045 8.95074 23.0381 9.01401 22.8685C9.0943 22.6622 9.17725 22.4527 9.26392 22.2528C9.40004 21.9369 9.54307 21.6205 9.69301 21.3116C9.77596 21.1484 9.86263 20.9756 9.95249 20.8124C10.0085 20.6917 10.0706 20.574 10.1386 20.4598C10.2944 20.1748 10.4576 19.8919 10.631 19.6191Z" fill="black"/>
</g>
<g style="mix-blend-mode:multiply" opacity="0.08">
<path d="M29.311 10.9926C28.6888 10.7385 28.0491 10.5294 27.3968 10.3668C27.2168 10.3008 27.029 10.2585 26.838 10.2408H26.8311C25.7526 10.0183 24.6515 9.92437 23.5509 9.96112C23.5347 9.95638 23.5177 9.95532 23.501 9.95793C19.0266 9.84148 12.1133 10.906 3.2666 16.1259L9.15218 10.2408C9.33509 10.144 9.518 10.0409 9.70782 9.95101C9.82107 9.89146 9.93061 9.83457 10.0401 9.78459C10.0439 9.7814 10.0534 9.78459 10.0572 9.7814C10.1704 9.72131 10.2799 9.67186 10.3895 9.62188C10.499 9.5719 10.6224 9.51559 10.7425 9.4688C10.7726 9.4503 10.805 9.43583 10.8388 9.42573C11.002 9.34917 11.1684 9.28265 11.3412 9.21299C11.4108 9.18322 11.4843 9.15669 11.5539 9.13329C11.7937 9.04024 12.0298 8.95724 12.2658 8.88067C12.3669 8.84037 12.4703 8.80591 12.5753 8.77752C12.6854 8.74083 12.7848 8.70733 12.8943 8.67756C13.0007 8.63768 13.107 8.61109 13.2171 8.58132C13.4962 8.50103 13.776 8.42818 14.0588 8.36491C14.3018 8.30855 14.548 8.2549 14.7872 8.20864C14.8441 8.19854 14.8973 8.18524 14.9537 8.17514C15.0866 8.15547 15.2196 8.12888 15.3562 8.10549C15.4929 8.08209 15.629 8.06555 15.7619 8.04535C16.0219 8.00547 16.2877 7.9725 16.544 7.94911L16.9434 7.90928C17.0694 7.89599 17.2028 7.88902 17.3325 7.87892H17.3724C17.625 7.85925 17.875 7.84915 18.1169 7.84596C18.3865 7.83585 18.6485 7.83585 18.9091 7.84596C19.1696 7.85606 19.428 7.8593 19.6939 7.87259C19.9369 7.8827 20.1762 7.90232 20.4224 7.92252C20.4392 7.92933 20.4575 7.93151 20.4755 7.92896C20.7414 7.95554 21.0008 7.98904 21.2603 8.02201C21.5198 8.05497 21.7831 8.09857 22.0425 8.14536C22.302 8.19216 22.5546 8.23836 22.814 8.29153C22.8273 8.29844 22.831 8.30169 22.8443 8.29478C23.0905 8.35486 23.3399 8.41117 23.5861 8.47816C23.7658 8.52442 23.9487 8.56808 24.1284 8.62763C24.2545 8.66113 24.3746 8.70101 24.4975 8.73769C24.6203 8.77438 24.7341 8.81421 24.8468 8.85409C24.9701 8.89024 25.0828 8.93071 25.203 8.97059C25.4189 9.04715 25.6353 9.13005 25.8517 9.21299C26.0447 9.29328 26.2377 9.37256 26.4238 9.45285C26.527 9.49592 26.6269 9.54271 26.7232 9.58578C26.8662 9.64267 27.0028 9.71227 27.139 9.77555C27.2522 9.82872 27.3687 9.88508 27.4819 9.94516C27.5053 9.95527 27.5484 9.97866 27.6085 10.0116L27.9977 10.2345C28.4534 10.4977 29.0654 10.8502 29.2648 10.9635C29.2796 10.9741 29.295 10.9839 29.311 10.9926Z" fill="black"/>
</g>
<g style="mix-blend-mode:multiply" opacity="0.25">
<path d="M35.5089 40.5193C35.502 40.5193 35.502 40.5193 35.4988 40.523C34.7306 40.7287 33.9508 40.8885 33.1635 41.0016C28.9525 41.614 24.6563 40.8507 20.9139 38.8253C20.0697 38.3714 19.2612 37.8544 18.4951 37.2785C18.5451 37.3019 18.7812 37.438 19.1672 37.6443C19.5963 37.8804 20.2184 38.2032 20.9702 38.5482C21.3563 38.7147 21.762 38.9008 22.2012 39.0741C22.4208 39.1672 22.6505 39.2501 22.8865 39.3336C23.1226 39.4171 23.3523 39.5064 23.5985 39.5861C24.0877 39.7558 24.5997 39.8956 25.1187 40.0354C25.6376 40.1753 26.1768 40.2949 26.7138 40.3912C27.2498 40.5012 27.7921 40.5842 28.3276 40.6474C28.863 40.7107 29.391 40.7607 29.9078 40.7841C30.4247 40.8075 30.9181 40.8272 31.3919 40.824C31.8656 40.8208 32.3032 40.8107 32.7291 40.7841C33.155 40.7575 33.5208 40.7373 33.867 40.7043C34.2131 40.6714 34.4992 40.6373 34.7454 40.6108C35.1995 40.5555 35.4754 40.5193 35.5089 40.5193Z" fill="black"/>
</g>
<g style="mix-blend-mode:multiply" opacity="0.25">
<path d="M38.5035 10.2307C39.8867 13.016 40.5956 16.0876 40.5731 19.1974C40.5505 22.3071 39.7971 25.368 38.3737 28.133C38.1307 28.602 37.8713 29.0609 37.5884 29.5102C37.6118 29.44 37.7314 29.1608 37.9281 28.7248C38.0313 28.4755 38.2041 28.1628 38.3237 27.8236C38.4535 27.461 38.6428 27.0547 38.7794 26.6155C38.8528 26.3959 38.9294 26.1668 39.0123 25.9301C39.0825 25.6877 39.1522 25.4378 39.2287 25.182C39.3112 24.9219 39.38 24.6576 39.435 24.3903C39.4951 24.117 39.5749 23.8442 39.628 23.5582C39.6812 23.2721 39.7376 22.9829 39.7913 22.6899C39.845 22.3969 39.871 22.0975 39.9173 21.7982C39.9636 21.4988 39.9907 21.1931 40.0173 20.8868C40.0438 20.5806 40.0773 20.2748 40.0736 19.9654C40.0837 19.6559 40.1103 19.3496 40.1103 19.0434C40.1103 18.7371 40.1002 18.4282 40.097 18.1256C40.0508 17.52 40.0438 16.9213 39.9609 16.3455C39.9109 15.7701 39.8046 15.2177 39.728 14.6886C39.6748 14.4292 39.6179 14.1729 39.5685 13.9304C39.5279 13.6905 39.4746 13.4528 39.409 13.2184C39.2893 12.766 39.1894 12.3464 39.0729 11.9838C38.9565 11.6212 38.8735 11.2926 38.7704 11.0358C38.6199 10.6067 38.53 10.3179 38.5035 10.2307Z" fill="black"/>
</g>
<g style="mix-blend-mode:multiply" opacity="0.25">
<path d="M9.51923 21.6753L9.22678 22.7387C9.12044 23.0912 9.04015 23.4507 8.95029 23.8069C8.86043 24.1632 8.78759 24.5221 8.70783 24.8746L8.67752 25.0113L8.65785 25.1309L8.60787 25.4069L8.56108 25.6796L8.53821 25.8163L8.52811 25.8796C8.52891 25.8737 8.52779 25.8677 8.52492 25.8625L8.5212 25.9258L8.3452 27.2668L8.29841 27.5991L8.28193 27.6826L8.27874 27.7124L8.27502 27.7156L8.27874 27.7193V27.7257L8.27502 27.7427L8.26544 27.8921L8.22876 28.5674C8.21546 28.7939 8.20536 29.0167 8.18197 29.2395L8.15857 29.5755L8.15219 29.8818L8.149 30.5368C8.15857 30.7602 8.15857 30.9861 8.16229 31.2089L8.16548 31.3786V31.4184L8.16229 31.4222L8.16548 31.4317L8.16229 31.4418L8.17186 31.5253L8.19207 31.8645L8.21174 32.1974L8.21865 32.35L8.23195 32.5164L8.28831 33.1917L8.36807 33.8441L8.40475 34.1802L8.45154 34.5061C8.46484 34.7055 8.52492 34.9453 8.56108 35.1617C8.64137 35.6004 8.71421 36.0465 8.77376 36.491C8.68071 36.2251 8.59404 35.9593 8.51748 35.6892C8.4675 35.5265 8.42124 35.36 8.37126 35.1968C8.2915 34.8778 8.21174 34.5646 8.14475 34.2456C8.07828 33.9393 8.01501 33.6367 7.96184 33.3241C7.90866 33.0114 7.86879 32.6983 7.82891 32.3856C7.78903 32.073 7.76244 31.7603 7.73905 31.4509C7.71565 31.1414 7.69917 30.8256 7.69226 30.506C7.68534 30.1864 7.68269 29.877 7.69226 29.5612C7.70555 28.9359 7.74915 28.3068 7.82199 27.6815C7.89218 27.0658 7.99533 26.4586 8.12135 25.8514C8.12475 25.8356 8.12938 25.8202 8.13517 25.8051C8.19792 25.5026 8.27448 25.1995 8.34786 24.9012C8.3552 24.8868 8.35972 24.8711 8.36115 24.8549L8.48079 24.4354C8.58713 24.076 8.70039 23.7235 8.82693 23.372C8.8833 23.2024 8.94976 23.036 9.01304 22.8663C9.09332 22.66 9.17627 22.4505 9.26294 22.2506C9.34642 22.0613 9.43309 21.8683 9.51923 21.6753Z" fill="black"/>
</g>
<g style="mix-blend-mode:multiply" opacity="0.25">
<path d="M26.4224 9.45542C26.1129 9.37194 25.8168 9.289 25.5074 9.21243L25.2782 9.15607C25.1947 9.13267 25.1384 9.11619 25.0549 9.09917L24.596 8.99283L24.1435 8.89287L23.6777 8.79982L22.843 8.64349H22.8291C22.8034 8.64349 22.7779 8.64025 22.753 8.63392C22.7502 8.63158 22.7467 8.63025 22.7429 8.6302L22.7398 8.62701L22.1671 8.55363C22.0677 8.54034 21.9778 8.52386 21.8778 8.51748L21.5849 8.48398L21.2893 8.44729L21.1627 8.434L21.0127 8.41751L20.4741 8.37072H20.4609C20.4474 8.36908 20.4339 8.36908 20.4205 8.37072C20.4008 8.37072 20.3843 8.36753 20.354 8.36434C20.1147 8.35743 19.8754 8.33776 19.6458 8.32766L18.897 8.31117L18.132 8.31755L17.3934 8.34414H17.3732L17.37 8.34095L17.3668 8.34414C17.1834 8.35424 17.0005 8.36434 16.8112 8.38083L16.5416 8.4106L16.2619 8.43719L15.7031 8.49036L15.4234 8.52386L15.1543 8.56055C15.0575 8.57703 14.981 8.58713 14.8816 8.60681L14.6183 8.65041L14.3392 8.69667L14.1994 8.71687C14.181 8.72229 14.1621 8.72564 14.143 8.72697L14.0728 8.74346L13.5172 8.85299L12.9854 8.96624L12.9722 8.97316C12.8026 9.00931 12.633 9.046 12.4564 9.09598L11.9274 9.23263L11.4021 9.37194L10.8799 9.53146L10.8628 9.53465L10.7863 9.55804L10.7768 9.56123C10.5439 9.63461 10.294 9.70426 10.0547 9.78402C10.1679 9.72394 10.2775 9.67449 10.387 9.62451C10.4965 9.57453 10.6199 9.51816 10.7401 9.47137C10.7701 9.45292 10.8025 9.43846 10.8363 9.4283C10.9995 9.35174 11.1659 9.28527 11.3387 9.21562C11.4084 9.18584 11.4818 9.15926 11.5515 9.13586C11.7913 9.04281 12.0273 8.95986 12.2634 8.8833C12.3645 8.84299 12.4678 8.80854 12.5728 8.78014C12.6829 8.74346 12.7824 8.70996 12.8919 8.68018C12.9983 8.6403 13.1045 8.61372 13.2146 8.58394C13.4938 8.50365 13.7735 8.43081 14.0564 8.36753C14.2994 8.31117 14.5455 8.25747 14.7848 8.21121C14.8417 8.20111 14.8949 8.18781 14.9512 8.17771C15.0842 8.15804 15.2171 8.13145 15.3537 8.10806C15.4904 8.08466 15.6265 8.06818 15.7594 8.04797C16.0194 8.00809 16.2853 7.97513 16.5416 7.95173L16.9409 7.91185C17.0669 7.89856 17.2004 7.89165 17.3301 7.88155H17.37C17.6226 7.86187 17.8724 7.85177 18.1144 7.84858C18.3839 7.83848 18.6461 7.83848 18.9067 7.84858C19.1672 7.85868 19.4256 7.86187 19.6914 7.87517C19.9344 7.88527 20.1737 7.90494 20.4199 7.92515C20.4367 7.93195 20.4551 7.93413 20.4731 7.93153C20.739 7.95811 20.9984 7.99161 21.2579 8.02458C21.5173 8.05754 21.7806 8.10114 22.0401 8.14794C22.2995 8.19473 22.5521 8.24099 22.8115 8.29416C22.8248 8.30107 22.8286 8.30426 22.8419 8.29735C23.0881 8.35743 23.3374 8.41379 23.5836 8.48079C23.7633 8.52705 23.9462 8.57065 24.1259 8.6302C24.2519 8.6637 24.3721 8.70358 24.4949 8.74027C24.6178 8.77695 24.7316 8.81683 24.8443 8.85671C24.9677 8.89287 25.0804 8.93328 25.2006 8.97316C25.4165 9.04972 25.6329 9.13267 25.8493 9.21562C26.0439 9.29591 26.2368 9.37566 26.4224 9.45542Z" fill="black"/>
</g>
<g style="mix-blend-mode:screen" opacity="0.4">
<path d="M8.27475 27.7428C8.27171 27.7332 8.2783 27.7266 8.27475 27.7236L8.2783 27.7266L8.27475 27.7428Z" fill="white"/>
</g>
<g style="mix-blend-mode:screen" opacity="0.4">
<path d="M20.1953 8.30429L20.3883 8.36437H20.3548C20.2986 8.3539 20.2445 8.33354 20.1953 8.30429Z" fill="white"/>
</g>
<g style="mix-blend-mode:screen" opacity="0.4">
<path d="M22.6602 8.6004L22.7048 8.61915C22.6894 8.61419 22.6744 8.6079 22.6602 8.6004Z" fill="white"/>
</g>
<g style="mix-blend-mode:screen" opacity="0.4">
<path d="M22.7573 8.63022L22.9966 8.60364C22.9738 8.61613 22.9492 8.62512 22.9238 8.63022C22.8981 8.63905 22.8712 8.64357 22.844 8.64352H22.8302L22.7573 8.63022Z" fill="white"/>
</g>
</g>
<defs>
<linearGradient id="paint0_linear_608_667" x1="165.32" y1="172.941" x2="165.32" y2="142.978" gradientUnits="userSpaceOnUse">
<stop stop-color="#00F3FF"/>
<stop offset="0.238" stop-color="#00EFFC"/>
<stop offset="0.44" stop-color="#00E5F4"/>
<stop offset="0.629" stop-color="#00D3E7"/>
<stop offset="0.81" stop-color="#00BAD4"/>
<stop offset="0.983" stop-color="#009BBC"/>
<stop offset="1" stop-color="#0098BA"/>
</linearGradient>
<linearGradient id="paint1_linear_608_667" x1="143.285" y1="169.26" x2="174.759" y2="169.26" gradientUnits="userSpaceOnUse">
<stop stop-color="#49A09D"/>
<stop offset="0.149" stop-color="#4A989B"/>
<stop offset="0.375" stop-color="#4E8396"/>
<stop offset="0.65" stop-color="#54618E"/>
<stop offset="0.96" stop-color="#5D3283"/>
<stop offset="1" stop-color="#5F2C82"/>
</linearGradient>
<linearGradient id="paint2_linear_608_667" x1="144.088" y1="148.912" x2="144.088" y2="179.049" gradientUnits="userSpaceOnUse">
<stop stop-color="#3E6896"/>
<stop offset="0.247" stop-color="#355881"/>
<stop offset="0.75" stop-color="#1F324E"/>
<stop offset="1" stop-color="#131D32"/>
</linearGradient>
<linearGradient id="paint3_linear_608_667" x1="167.769" y1="148.903" x2="136.994" y2="148.903" gradientUnits="userSpaceOnUse">
<stop stop-color="#233B55"/>
<stop offset="1" stop-color="#131D32"/>
</linearGradient>
</defs>
</svg>
